<svg width="36" height="33" viewBox="0 0 36 33" fill="none" xmlns="http://www.w3.org/2000/svg">
<path d="M18.2 8.2C18.2 6.50262 17.5257 4.87475 16.3254 3.67452C15.1252 2.47429 13.4973 1.8 11.8 1.8H2.19995V25.8H13.4C14.673 25.8 15.8939 26.3057 16.7941 27.2059C17.6942 28.1061 18.2 29.327 18.2 30.6M18.2 8.2V30.6M18.2 8.2C18.2 6.50262 18.8742 4.87475 20.0745 3.67452C21.2747 2.47429 22.9026 1.8 24.6 1.8H34.2V25.8H23C21.7269 25.8 20.506 26.3057 19.6058 27.2059C18.7057 28.1061 18.2 29.327 18.2 30.6" stroke="white" stroke-width="3.2" stroke-linecap="round" stroke-linejoin="round"/>
</svg>
