<svg width="69" height="70" viewBox="0 0 69 70" fill="none" xmlns="http://www.w3.org/2000/svg">
<path fill-rule="evenodd" clip-rule="evenodd" d="M19.2857 31.0625C24.8875 31.0625 29.4286 26.5214 29.4286 20.9196C29.4286 15.3179 24.8875 10.7768 19.2857 10.7768C13.684 10.7768 9.14287 15.3179 9.14287 20.9196C9.14287 26.5214 13.684 31.0625 19.2857 31.0625ZM19.2857 31.0625H59.8571C62.6581 31.0625 64.9286 33.3331 64.9286 36.1339V61.4911C64.9286 64.292 62.6581 66.5625 59.8571 66.5625H9.14287C6.34202 66.5625 4.07144 64.292 4.07144 61.4911V36.1339C4.07144 33.3331 6.34202 31.0625 9.14287 31.0625H19.2857Z" fill="#79EE8D"/>
<path fill-rule="evenodd" clip-rule="evenodd" d="M26.8929 6.33929C25.3969 6.33929 24.0739 7.07951 23.27 8.21363C28.6759 9.90709 32.5982 14.9553 32.5982 20.9196C32.5982 23.4765 31.8774 25.8649 30.628 27.8929H59.8571C64.4088 27.8929 68.0982 31.5825 68.0982 36.1339V61.4911C68.0982 66.0427 64.4088 69.7321 59.8571 69.7321H9.14287C4.59146 69.7321 0.901794 66.0427 0.901794 61.4911V36.1339C0.901794 31.9728 3.98585 28.5319 7.99292 27.9725C6.71304 25.9275 5.97322 23.51 5.97322 20.9196C5.97322 14.5211 10.4875 9.1768 16.5049 7.89804C17.7641 3.34386 21.938 0 26.8929 0C28.6434 0 30.0625 1.4191 30.0625 3.16964C30.0625 4.92019 28.6434 6.33929 26.8929 6.33929ZM7.24108 45.6429V61.4911C7.24108 62.5414 8.09252 63.3929 9.14287 63.3929H59.8571C60.9074 63.3929 61.7589 62.5414 61.7589 61.4911V45.6429H7.24108ZM19.2857 27.8929C23.1369 27.8929 26.2589 24.7708 26.2589 20.9196C26.2589 17.0685 23.1369 13.9464 19.2857 13.9464C15.4345 13.9464 12.3125 17.0685 12.3125 20.9196C12.3125 24.7708 15.4345 27.8929 19.2857 27.8929Z" fill="#007647"/>
</svg>
