<svg width="69" height="69" viewBox="0 0 69 69" fill="none" xmlns="http://www.w3.org/2000/svg">
<path fill-rule="evenodd" clip-rule="evenodd" d="M52.25 60.4911C59.2521 60.4911 64.9286 54.8146 64.9286 47.8125C64.9286 40.8103 59.2521 35.1339 52.25 35.1339C45.2478 35.1339 39.5714 40.8103 39.5714 47.8125C39.5714 54.8146 45.2478 60.4911 52.25 60.4911ZM16.75 65.5625C23.7522 65.5625 29.4286 59.886 29.4286 52.8839C29.4286 45.8817 23.7522 40.2054 16.75 40.2054C9.74782 40.2054 4.07142 45.8817 4.07142 52.8839C4.07142 59.886 9.74782 65.5625 16.75 65.5625Z" fill="#79EE8D"/>
<path fill-rule="evenodd" clip-rule="evenodd" d="M12.3125 4.70535C12.3125 2.25459 14.2992 0.267853 16.75 0.267853H42.1071C44.5579 0.267853 46.5446 2.25459 46.5446 4.70535C46.5446 7.15612 44.5579 9.14285 42.1071 9.14285H34.4574C34.6935 10.3139 35.0237 11.6911 35.4856 13.2452C37.0046 18.3567 39.9559 25.413 45.7053 33.3745C47.7004 32.4687 49.9161 31.9643 52.25 31.9643C61.0028 31.9643 68.0982 39.0598 68.0982 47.8125C68.0982 56.5653 61.0028 63.6607 52.25 63.6607C43.4973 63.6607 36.4018 56.5653 36.4018 47.8125C36.4018 44.6292 37.3403 41.6652 38.9557 39.1819C32.8666 30.8936 29.4262 23.3292 27.4862 17.4001C25.4533 22.3229 23.3392 29.1465 22.1507 37.9797C28.2444 40.1883 32.5982 46.0277 32.5982 52.8839C32.5982 61.6367 25.5027 68.7321 16.75 68.7321C7.99727 68.7321 0.901779 61.6367 0.901779 52.8839C0.901779 45.3257 6.1928 39.0032 13.273 37.4183C14.7457 25.9798 17.6737 17.404 20.3609 11.5345C20.7523 10.6795 21.1384 9.88252 21.5139 9.14285H16.75C14.2992 9.14285 12.3125 7.15612 12.3125 4.70535ZM16.75 43.375C11.4984 43.375 7.24106 47.6323 7.24106 52.8839C7.24106 58.1354 11.4984 62.3928 16.75 62.3928C22.0016 62.3928 26.2589 58.1354 26.2589 52.8839C26.2589 47.6323 22.0016 43.375 16.75 43.375ZM42.7411 47.8125C42.7411 42.5609 46.9984 38.3036 52.25 38.3036C57.5015 38.3036 61.7589 42.5609 61.7589 47.8125C61.7589 53.064 57.5015 57.3214 52.25 57.3214C46.9984 57.3214 42.7411 53.064 42.7411 47.8125Z" fill="#007647"/>
</svg>
