<svg width="37" height="37" viewBox="0 0 37 37" fill="none" xmlns="http://www.w3.org/2000/svg">
<path d="M16.6 5.4H5.39995C4.55126 5.4 3.73733 5.73714 3.13721 6.33726C2.53709 6.93738 2.19995 7.75131 2.19995 8.6V31C2.19995 31.8487 2.53709 32.6626 3.13721 33.2627C3.73733 33.8629 4.55126 34.2 5.39995 34.2H27.8C28.6486 34.2 29.4626 33.8629 30.0627 33.2627C30.6628 32.6626 31 31.8487 31 31V19.8M28.6 3C29.2365 2.36348 30.0998 2.00589 31 2.00589C31.9001 2.00589 32.7634 2.36348 33.4 3C34.0365 3.63652 34.3941 4.49983 34.3941 5.4C34.3941 6.30018 34.0365 7.16348 33.4 7.8L18.2 23L11.8 24.6L13.4 18.2L28.6 3Z" stroke="white" stroke-width="4" stroke-linecap="round" stroke-linejoin="round"/>
</svg>
