<svg width="39" height="30" viewBox="0 0 39 30" fill="none" xmlns="http://www.w3.org/2000/svg">
<path d="M13.2571 4.91434V3.31433H11.6571H10.9714C10.719 3.31433 10.5143 3.10966 10.5143 2.85719C10.5143 2.60473 10.719 2.40005 10.9714 2.40005H16.4571C16.7096 2.40005 16.9143 2.60473 16.9143 2.85719C16.9143 3.10966 16.7096 3.31433 16.4571 3.31433H15.7714H14.1714V4.91434V25.4858V27.0858H15.7714H16.4571C16.7096 27.0858 16.9143 27.2905 16.9143 27.5429C16.9143 27.7954 16.7096 28.0001 16.4571 28.0001H10.9714C10.719 28.0001 10.5143 27.7954 10.5143 27.5429C10.5143 27.2905 10.719 27.0858 10.9714 27.0858H11.6571H13.2571V25.4858V4.91434ZM2.74286 9.94425H6.62857V20.4585H2.74286C2.11168 20.4585 1.6 19.9469 1.6 19.3157V11.0871C1.6 10.4559 2.11167 9.94425 2.74286 9.94425ZM35.6571 20.4585H20.8V9.94425H35.6571C36.2884 9.94425 36.8 10.4559 36.8 11.0871V19.3157C36.8 19.9469 36.2883 20.4585 35.6571 20.4585Z" stroke="white" stroke-width="3.2"/>
</svg>
