<svg width="16" height="16" viewBox="0 0 16 16" fill="none" xmlns="http://www.w3.org/2000/svg">
<path d="M3.38712 2.92236V1.62131C3.38712 1.14227 3.77546 0.753937 4.25449 0.753937H12.4945C12.9735 0.753937 13.3619 1.14227 13.3619 1.62131V5.09078M1.21938 12.999L1.21945 6.40389C1.21945 5.7433 1.2192 4.8024 1.21899 4.12112C1.21885 3.64196 1.60723 3.25397 2.0864 3.25397H6.21956L8.21814 5.38888H14.2292C14.7082 5.38888 15.0966 5.77723 15.0966 6.25628L15.0964 12.9991C15.0963 13.9572 14.3197 14.7338 13.3616 14.7338L2.95411 14.7338C1.99604 14.7338 1.21937 13.9571 1.21938 12.999Z" stroke="#FFB27B" stroke-width="1.44561" stroke-linecap="round" stroke-linejoin="round"/>
</svg>
